<svg width="16" height="31" viewBox="0 0 16 31" fill="none" xmlns="http://www.w3.org/2000/svg">
<path id="Vector" fill-rule="evenodd" clip-rule="evenodd" d="M4.05685 15.5035V30.3816C4.05942 30.484 4.10396 30.5813 4.18103 30.6529C4.25809 30.7244 4.36148 30.7644 4.46917 30.7644H10.2722C10.3799 30.7644 10.4834 30.7244 10.5605 30.6529C10.6375 30.5813 10.6821 30.484 10.6846 30.3816V15.2609H14.8872C14.9901 15.2613 15.0894 15.2251 15.1657 15.1594C15.242 15.0938 15.2897 15.0033 15.2995 14.9059L15.7021 10.3483C15.7061 10.2952 15.6987 10.2419 15.6804 10.1916C15.6621 10.1414 15.6332 10.0953 15.5956 10.056C15.5579 10.0167 15.5123 9.98494 15.4614 9.96294C15.4105 9.94093 15.3554 9.92895 15.2995 9.92782H10.6846V6.69638C10.6846 6.51652 10.722 6.33844 10.7947 6.1724C10.8673 6.00635 10.9738 5.85565 11.108 5.72891C11.2421 5.60216 11.4013 5.50183 11.5764 5.43385C11.7515 5.36588 11.9389 5.33161 12.128 5.33284H15.3683C15.422 5.33286 15.4751 5.32257 15.5246 5.30274C15.5741 5.28292 15.6189 5.25402 15.6564 5.21747C15.694 5.18091 15.7235 5.13755 15.7431 5.09C15.7627 5.04246 15.7721 4.99172 15.7708 4.94065V0.382839C15.7708 0.281282 15.7285 0.183996 15.653 0.112184C15.5775 0.0403723 15.4751 0 15.3683 0H9.88925C8.34409 -2.08272e-06 6.86209 0.583277 5.76858 1.62165C4.67506 2.66002 4.05945 4.06856 4.05685 5.53828V9.92782H1.11117C1.0018 9.92782 0.896889 9.96918 0.81955 10.0427C0.74221 10.1163 0.69873 10.2162 0.69873 10.3202V14.8778C0.701295 14.9802 0.745843 15.0776 0.822906 15.1492C0.899969 15.2207 1.00348 15.2609 1.11117 15.2609H4.05685V15.5035Z" fill="#3366FF"/>
</svg>
