<svg width="49" height="46" viewBox="0 0 49 46" fill="none" xmlns="http://www.w3.org/2000/svg">
<g id="Group 2">
<circle id="Ellipse 19" cx="24.0601" cy="23.7748" r="20.0328" fill="#3366FF"/>
<path id="Vector" d="M24.2852 45.8761C19.5384 45.8761 14.8982 44.5309 10.9515 42.0104C7.00468 39.4899 3.92853 35.9074 2.11203 31.716C0.295523 27.5246 -0.179714 22.9126 0.746331 18.463C1.67238 14.0135 3.95816 9.92622 7.31462 6.71828C10.6711 3.51033 14.9475 1.32584 19.603 0.440769C24.2585 -0.444301 29.0841 0.0099081 33.4696 1.74604C37.855 3.48216 41.6033 6.42215 44.2404 10.1943C46.8776 13.9664 48.2852 18.4013 48.2852 22.938C48.2782 29.0195 45.7474 34.8501 41.248 39.1504C36.7487 43.4507 30.6482 45.8694 24.2852 45.8761ZM32.3813 13.631C32.0358 13.631 31.6981 13.7288 31.4108 13.9122C31.1236 14.0957 30.8997 14.3565 30.7675 14.6615C30.6353 14.9666 30.6007 15.3022 30.6681 15.6261C30.7355 15.9499 30.9018 16.2473 31.1461 16.4808C31.3904 16.7142 31.7016 16.8732 32.0405 16.9377C32.3793 17.0021 32.7305 16.9691 33.0497 16.8427C33.3688 16.7163 33.6416 16.5024 33.8336 16.2279C34.0255 15.9533 34.128 15.6306 34.128 15.3004C34.128 15.0791 34.0819 14.8598 33.9925 14.6556C33.9031 14.4514 33.7721 14.2663 33.6071 14.1109C33.4422 13.9556 33.2465 13.8332 33.0315 13.7508C32.8166 13.6684 32.5866 13.6277 32.355 13.631H32.3813ZM24.521 15.8095C23.0458 15.8095 21.6038 16.2275 20.3772 17.0108C19.1507 17.7941 18.1947 18.9075 17.6302 20.2101C17.0657 21.5127 16.918 22.9459 17.2058 24.3287C17.4936 25.7115 18.2039 26.9816 19.247 27.9785C20.2901 28.9755 21.6191 29.6545 23.0659 29.9296C24.5127 30.2047 26.0123 30.0634 27.3752 29.5239C28.7381 28.9843 29.9029 28.0707 30.7225 26.8984C31.542 25.7262 31.9795 24.3479 31.9795 22.938C31.9783 22.0001 31.7837 21.0716 31.4069 20.2056C31.03 19.3396 30.4783 18.553 29.7831 17.891C29.088 17.2289 28.2631 16.7044 27.3557 16.3473C26.4483 15.9901 25.4761 15.8073 24.4948 15.8095H24.521ZM24.521 27.4955C23.5761 27.4955 22.6525 27.2277 21.8668 26.726C21.0812 26.2243 20.4689 25.5113 20.1073 24.6769C19.7457 23.8426 19.6511 22.9246 19.8355 22.0389C20.0198 21.1532 20.4748 20.3396 21.1429 19.701C21.811 19.0625 22.6622 18.6276 23.5889 18.4514C24.5156 18.2752 25.4762 18.3657 26.3492 18.7112C27.2221 19.0568 27.9682 19.642 28.4931 20.3929C29.0181 21.1438 29.2983 22.0266 29.2983 22.9297C29.2994 23.5321 29.1759 24.1287 28.9347 24.6853C28.6935 25.2419 28.3394 25.7474 27.8929 26.1725C27.4463 26.5977 26.9162 26.9343 26.333 27.1628C25.7498 27.3913 25.1251 27.5072 24.4948 27.5039L24.521 27.4955ZM39.569 17.0031C39.569 14.6963 38.6102 12.4841 36.9036 10.8529C35.1969 9.22179 32.8822 8.30538 30.4686 8.30538H18.4249C16.012 8.30759 13.6986 9.22472 11.9925 10.8554C10.2863 12.4861 9.32678 14.697 9.32446 17.0031V28.4805C9.32446 30.7872 10.2833 32.9996 11.9899 34.6308C13.6966 36.2619 16.0113 37.1784 18.4249 37.1784H30.4336C31.629 37.1795 32.8129 36.9552 33.9176 36.5185C35.0222 36.0818 36.0259 35.4411 36.8712 34.6332C37.7164 33.8254 38.3867 32.8661 38.8437 31.8104C39.3006 30.7546 39.5352 29.623 39.534 28.4805L39.569 17.0031ZM36.7218 28.4888C36.7195 30.0732 36.06 31.5922 34.8877 32.7125C33.7155 33.8329 32.1264 34.4633 30.4686 34.4655H18.4249C16.7679 34.4633 15.1796 33.8327 14.0088 32.7121C12.838 31.5915 12.1804 30.0725 12.1804 28.4888V17.0114C12.1804 15.4286 12.8383 13.9106 14.0094 12.7914C15.1804 11.6721 16.7687 11.0433 18.4249 11.0433H30.4336C32.0906 11.0433 33.6798 11.6717 34.8523 12.7908C36.0248 13.9098 36.6846 15.4278 36.6869 17.0114L36.7218 28.4888Z" fill="white"/>
</g>
</svg>
