<svg width="30" height="20" viewBox="0 0 30 20" fill="none" xmlns="http://www.w3.org/2000/svg">
<path id="Vector" d="M29.4496 5.99561C29.4378 4.40894 28.7699 2.89042 27.5904 1.76844C26.4108 0.646472 24.8144 0.0112136 23.1462 3.9499e-09H6.6675C4.99074 -5.75936e-05 3.38185 0.62982 2.19115 1.75276C1.00045 2.8757 0.324309 4.40076 0.310059 5.99561V13.3444C0.310059 14.9481 0.979894 16.4862 2.17214 17.6202C3.36438 18.7543 4.98142 19.3914 6.6675 19.3914H23.0742C24.7509 19.3779 26.3542 18.7348 27.5348 17.6023C28.7153 16.4697 29.3777 14.9393 29.3776 13.3444L29.4496 5.99561ZM19.0581 10.0383L12.4846 13.4644C12.1964 13.61 11.9353 13.4129 11.9353 13.1045V6.06399C11.9353 5.75564 12.2054 5.55872 12.4936 5.71289L19.1121 9.31878C19.1773 9.35872 19.23 9.41466 19.2647 9.48064C19.2994 9.54661 19.3148 9.62014 19.3093 9.69372C19.3038 9.76729 19.2775 9.83824 19.2333 9.89886C19.1892 9.95947 19.1286 10.0076 19.0581 10.0383Z" fill="#3366FF"/>
</svg>
